<?xml version="1.0" encoding="utf-8"?><svg viewBox="0 0 23 23" xmlns="http://www.w3.org/2000/svg" xmlns:xlink="http://www.w3.org/1999/xlink"><style>:root>svg{display:none}:root>svg:target{display:block}</style><svg fill="none" viewBox="0 0 16 8" id="arrowLeft" xmlns="http://www.w3.org/2000/svg"><path d="M.646 3.646a.5.5 0 000 .708l3.182 3.182a.5.5 0 10.708-.708L1.707 4l2.829-2.828a.5.5 0 10-.708-.708L.646 3.646zM1 4.5h15v-1H1v1z" fill="#fff"/></svg><svg fill="none" viewBox="0 0 16 8" id="arrowRight" xmlns="http://www.w3.org/2000/svg"><path d="M15.354 4.354a.5.5 0 000-.708L12.172.464a.5.5 0 10-.708.708L14.293 4l-2.829 2.828a.5.5 0 10.708.708l3.182-3.182zM0 4.5h15v-1H0v1z" fill="#fff"/></svg><svg fill="none" viewBox="0 0 23 23" id="geolocationIcon" xmlns="http://www.w3.org/2000/svg"><path d="M20.125 9.583c0 6.709-8.625 12.459-8.625 12.459s-8.625-5.75-8.625-12.459a8.625 8.625 0 1117.25 0z" stroke="#fff" stroke-width="1.3" stroke-linecap="round" stroke-linejoin="round"/><path d="M11.5 12.458a2.875 2.875 0 100-5.75 2.875 2.875 0 000 5.75z" stroke="#fff" stroke-width="1.3" stroke-linecap="round" stroke-linejoin="round"/></svg><svg fill="none" viewBox="0 0 23 23" id="menuIcon" xmlns="http://www.w3.org/2000/svg"><circle cx="3.5" cy="3.5" r="3" stroke="#fff"/><circle cx="3.5" cy="11.5" r="3" stroke="#fff"/><circle cx="3.5" cy="19.5" r="3" stroke="#fff"/><circle cx="11.5" cy="3.5" r="3" stroke="#fff"/><circle cx="11.5" cy="11.5" r="3" stroke="#fff"/><circle cx="11.5" cy="19.5" r="3" stroke="#fff"/><circle cx="19.5" cy="3.5" r="3" stroke="#fff"/><circle cx="19.5" cy="11.5" r="3" stroke="#fff"/><circle cx="19.5" cy="19.5" r="3" stroke="#fff"/></svg></svg>